# File created by Blade
# Date/Time:  Tue Sep 30 19:31:45 2014
#---------------------------------------------------------
:version 1.10
:name HOM
:units
  mass 1.0
  length 1.000000
  angle deg
:documentation
     Acclaim Skeleton File
:root
   axis xyz
   order TX TY TZ RX RY RZ
   position 0.000000 0.000000 0.000000
   orientation 0 0 0
:bonedata
   begin
      id 1
      name Spine_dum
      direction 0.000000 1.000000 0.000000
      length 3.241213
      axis 0.0 0.0 0.0 xyz
   end
   begin
      id 2
      name LeftUpLeg_dum
      direction 1.000000 0.000000 0.000000
      length 3.434019
      axis 0.0 0.0 0.0 xyz
   end
   begin
      id 3
      name RightUpLeg_dum
      direction -1.000000 0.000000 0.000000
      length 3.434019
      axis 0.0 0.0 0.0 xyz
   end
   begin
      id 4
      name Spine
      direction 0.000000 1.000000 0.000000
      length 0.000000
      axis 0.0 0.0 0.0 xyz
      dof rx ry rz
   end
   begin
      id 5
      name Spine_dum1
      direction 0.000000 1.000000 0.000000
      length 18.382958
      axis 0.0 0.0 0.0 xyz
   end
   begin
      id 6
      name Spine_dum2
      direction 0.000000 1.000000 0.000000
      length 12.828261
      axis 0.0 0.0 0.0 xyz
   end
   begin
      id 7
      name Spine_dum3
      direction 0.000000 1.000000 0.000000
      length 12.828261
      axis 0.0 0.0 0.0 xyz
   end
   begin
      id 8
      name Head
      direction 0.000000 1.000000 0.000000
      length 4.527550
      axis 0.0 0.0 0.0 xyz
      dof rx ry rz
   end
   begin
      id 9
      name LeftShoulder
      direction 1.000000 0.000000 0.000000
      length 7.748055
      axis 0.0 0.0 -90.0 xyz
      dof rx ry rz
   end
   begin
      id 10
      name LeftArm
      direction 1.000000 0.000000 0.000000
      length 10.635614
      axis 0.0 0.0 -90.0 xyz
      dof rx ry rz
   end
   begin
      id 11
      name LeftForeArm
      direction 1.000000 0.000000 0.000000
      length 8.346755
      axis 0.0 0.0 -90.0 xyz
      dof ry rz rx
   end
   begin
      id 12
      name LeftHand
      direction 0.000000 0.000000 0.000000
      length 0.000000
      axis 0.0 0.0 -90.0 xyz
      dof rx ry rz
   end
   begin
      id 13
      name LeftHand_dum1
      direction 0.000000 0.000000 0.000000
      length 0.000000
      axis 0.0 0.0 -90.0 xyz
   end
   begin
      id 14
      name LeftHand_dum2
      direction 1.000000 0.000000 0.000000
      length 3.937000
      axis 0.0 0.0 -90.0 xyz
   end
   begin
      id 15
      name LeftHandThumb1
      direction 0.000000 0.000000 1.000000
      length 3.937000
      axis 0.0 0.0 -90.0 xyz
      dof rx rz ry
   end
   begin
      id 16
      name RightShoulder
      direction -1.000000 0.000000 0.000000
      length 7.748055
      axis 0.0 0.0 90.0 xyz
      dof rx ry rz
   end
   begin
      id 17
      name RightArm
      direction -1.000000 0.000000 0.000000
      length 10.635614
      axis 0.0 0.0 90.0 xyz
      dof rx ry rz
   end
   begin
      id 18
      name RightForeArm
      direction -1.000000 0.000000 0.000000
      length 8.346755
      axis 0.0 0.0 90.0 xyz
      dof ry rz rx
   end
   begin
      id 19
      name RightHand
      direction 0.000000 0.000000 0.000000
      length 0.000000
      axis 0.0 0.0 90.0 xyz
      dof rx ry rz
   end
   begin
      id 20
      name RightHand_dum1
      direction 0.000000 0.000000 0.000000
      length 0.000000
      axis 0.0 0.0 90.0 xyz
   end
   begin
      id 21
      name RightHand_dum2
      direction -1.000000 0.000000 0.000000
      length 3.937000
      axis 0.0 0.0 90.0 xyz
   end
   begin
      id 22
      name RightHandThumb1
      direction 0.000000 0.000000 1.000000
      length 3.937000
      axis 0.0 0.0 90.0 xyz
      dof rx rz ry
   end
   begin
      id 23
      name LeftUpLeg
      direction 0.000000 -1.000000 0.000000
      length 15.713025
      axis 0.0 0.0 0.0 xyz
      dof rx ry rz
   end
   begin
      id 24
      name LeftLeg
      direction 0.000000 -1.000000 0.000000
      length 14.435119
      axis 0.0 0.0 0.0 xyz
      dof rx ry rz
   end
   begin
      id 25
      name LeftFoot
      direction 0.000000 -0.258819 0.965926
      length 4.938895
      axis 15.0 0.0 0.0 xyz
      dof rx ry rz
   end
   begin
      id 26
      name LeftToeBase
      direction 0.000000 0.000000 1.000000
      length 2.952750
      axis 0.0 0.0 0.0 xyz
      dof rx ry rz
   end
   begin
      id 27
      name RightUpLeg
      direction 0.000000 -1.000000 0.000000
      length 15.713025
      axis 0.0 0.0 0.0 xyz
      dof rx ry rz
   end
   begin
      id 28
      name RightLeg
      direction 0.000000 -1.000000 0.000000
      length 14.435119
      axis 0.0 0.0 0.0 xyz
      dof rx ry rz
   end
   begin
      id 29
      name RightFoot
      direction 0.000000 -0.258819 0.965926
      length 4.938895
      axis 15.0 0.0 0.0 xyz
      dof rx ry rz
   end
   begin
      id 30
      name RightToeBase
      direction 0.000000 0.000000 1.000000
      length 2.952750
      axis 0.0 0.0 0.0 xyz
      dof rx ry rz
   end
:hierarchy
   begin
      root Spine_dum LeftUpLeg_dum RightUpLeg_dum
      Spine_dum Spine
      LeftUpLeg_dum LeftUpLeg
      RightUpLeg_dum RightUpLeg
      Spine Spine_dum1 Spine_dum2 Spine_dum3
      Spine_dum1 Head
      Spine_dum2 LeftShoulder
      Spine_dum3 RightShoulder
      LeftShoulder LeftArm
      LeftArm LeftForeArm
      LeftForeArm LeftHand
      LeftHand LeftHand_dum1 LeftHand_dum2
      LeftHand_dum1 LeftHandThumb1
      RightShoulder RightArm
      RightArm RightForeArm
      RightForeArm RightHand
      RightHand RightHand_dum1 RightHand_dum2
      RightHand_dum1 RightHandThumb1
      LeftUpLeg LeftLeg
      LeftLeg LeftFoot
      LeftFoot LeftToeBase
      RightUpLeg RightLeg
      RightLeg RightFoot
      RightFoot RightToeBase
   end

# File created by Blade
# Date/Time:  Mon Sep 22 19:00:17 2014
# Frame Rate: 120.000 fps
#------------------------------------------------------
:FULLY-SPECIFIED
:DEGREES
349
root -0.455999 32.760815 -3.486994 39.134385 25.085715 3.118479
Spine -48.906249 14.114915 -19.043667
Head 8.393292 -23.218648 -13.370694
LeftShoulder -8.789657 41.569734 12.828001
LeftArm 71.956857 34.800405 -46.892807
LeftForeArm 11.757924 -0.000000 6.909292
LeftHand -20.221168 0.000000 -10.075632
LeftHandThumb1 -26.253704 0.000000 33.147579
RightShoulder -12.812349 5.652796 -52.977923
RightArm 116.159452 30.181495 126.890219
RightForeArm 87.205186 -0.000000 114.531874
RightHand 23.435013 -0.000000 1.353800
RightHandThumb1 -24.326973 -0.000000 -32.862282
LeftUpLeg -36.112302 -8.777987 8.254217
LeftLeg -0.740982 -0.000000 0.000000
LeftFoot 0.855562 -7.247487 -3.748530
LeftToeBase 1.916357 -0.000000 -0.000000
RightUpLeg -30.160717 -20.992096 10.963000
RightLeg -3.586606 -0.000000 0.000000
RightFoot -10.867027 -14.813241 20.771093
RightToeBase 14.856736 -0.000000 -0.000000
350
root -0.456928 32.760821 -3.488538 39.128534 25.085149 3.109750
Spine -48.900980 14.146756 -19.054978
Head 8.457991 -23.190601 -13.550126
LeftShoulder -8.751102 41.561975 12.847176
LeftArm 72.003368 34.806633 -46.825389
LeftForeArm 11.754717 0.000000 6.915079
LeftHand -20.221358 0.000000 -10.085598
LeftHandThumb1 -26.253704 0.000000 33.147579
RightShoulder -12.868519 5.755515 -52.956862
RightArm 116.228426 30.063144 127.110821
RightForeArm 87.430901 -0.000000 115.313532
RightHand 23.673072 -0.000000 1.160783
RightHandThumb1 -24.326973 -0.000000 -32.862282
LeftUpLeg -36.118433 -8.762623 8.253281
LeftLeg -0.726212 -0.000000 0.000000
LeftFoot 0.841696 -7.259945 -3.742150
LeftToeBase 1.942545 -0.000000 -0.000000
RightUpLeg -30.154980 -20.985135 10.966662
RightLeg -3.596508 -0.000000 0.000000
RightFoot -10.849758 -14.776874 20.830116
RightToeBase 14.802095 -0.000000 -0.000000
351
root -0.457214 32.761039 -3.490508 39.124214 25.074965 3.104395
Spine -48.893867 14.173652 -19.058398
Head 8.517606 -23.154030 -13.736339
LeftShoulder -8.739081 41.555212 12.846138
LeftArm 72.032763 34.806588 -46.781657
LeftForeArm 11.767249 -0.000000 6.917866
LeftHand -20.201467 0.000000 -10.106141
LeftHandThumb1 -26.253704 0.000000 33.147579
RightShoulder -12.908938 5.821528 -52.929889
RightArm 116.343890 29.913188 127.398354
RightForeArm 87.630656 -0.000000 116.118549
RightHand 23.628193 0.000000 0.909743
RightHandThumb1 -24.326973 -0.000000 -32.862282
LeftUpLeg -36.115301 -8.787825 8.279542
LeftLeg -0.737508 -0.000000 0.000000
LeftFoot 0.840653 -7.228143 -3.755312
LeftToeBase 1.951598 -0.000000 -0.000000
RightUpLeg -30.168793 -20.998470 10.979524
RightLeg -3.584633 -0.000000 0.000000
RightFoot -10.842932 -14.771627 20.804807
RightToeBase 14.814826 -0.000000 -0.000000
352
root -0.457718 32.761129 -3.491894 39.118670 25.061132 3.095520
Spine -48.892283 14.203345 -19.066087
Head 8.599219 -23.139428 -13.909254
LeftShoulder -8.723680 41.541641 12.851206
LeftArm 72.057799 34.814989 -46.729906
LeftForeArm 11.755109 -0.000000 6.939802
LeftHand -20.198933 0.000000 -10.113893
LeftHandThumb1 -26.253704 0.000000 33.147579
RightShoulder -12.962784 5.883889 -52.914898
RightArm 116.414167 29.688822 127.694445
RightForeArm 87.794968 -0.000000 116.871805
RightHand 23.692083 -0.000000 0.968882
RightHandThumb1 -24.326973 -0.000000 -32.862282
LeftUpLeg -36.113991 -8.781788 8.284998
LeftLeg -0.734399 -0.000000 0.000000
LeftFoot 0.839380 -7.224386 -3.776578
LeftToeBase 1.956107 -0.000000 -0.000000
RightUpLeg -30.178428 -21.008345 10.995067
RightLeg -3.578768 -0.000000 0.000000
RightFoot -10.831724 -14.753353 20.771644
RightToeBase 14.819202 -0.000000 -0.000000
353
root -0.458438 32.761143 -3.494870 39.117918 25.055130 3.088877
Spine -48.891829 14.232024 -19.067166
Head 8.680472 -23.114528 -14.088716
LeftShoulder -8.700713 41.535451 12.855031
LeftArm 72.082746 34.811712 -46.686201
LeftForeArm 11.732105 -0.000000 6.952275
LeftHand -20.169353 -0.000000 -10.119099
LeftHandThumb1 -26.253704 0.000000 33.147579
RightShoulder -13.010623 5.925728 -52.898735
RightArm 116.478019 29.509639 127.950792
RightForeArm 87.863997 -0.000000 117.626312
RightHand 23.755919 -0.000000 0.879105
RightHandThumb1 -24.326973 -0.000000 -32.862282
LeftUpLeg -36.126210 -8.782136 8.291155
LeftLeg -0.721923 -0.000000 0.000000
LeftFoot 0.826393 -7.208204 -3.760140
LeftToeBase 1.987038 -0.000000 -0.000000
RightUpLeg -30.165233 -20.964420 10.970129
RightLeg -3.595528 -0.000000 0.000000
RightFoot -10.854274 -14.778822 20.837847
RightToeBase 14.874380 -0.000000 -0.000000
354
root -0.458238 32.761581 -3.496827 39.115798 25.045685 3.084781
Spine -48.891271 14.258738 -19.067594
Head 8.741597 -23.095689 -14.259419
LeftShoulder -8.694309 41.525652 12.844089
LeftArm 72.089077 34.811880 -46.648376
LeftForeArm 11.746758 -0.000000 6.988753
LeftHand -20.168171 0.000000 -10.132764
LeftHandThumb1 -26.253704 0.000000 33.147579
RightShoulder -13.047980 5.936334 -52.871808
RightArm 116.590698 29.307205 128.258319
RightForeArm 88.044308 -0.000000 118.343414
RightHand 23.685269 -0.000000 1.087980
RightHandThumb1 -24.326973 -0.000000 -32.862282
LeftUpLeg -36.123575 -8.803132 8.310454
LeftLeg -0.733680 -0.000000 0.000000
LeftFoot 0.831539 -7.178608 -3.767474
LeftToeBase 1.956790 -0.000000 -0.000000
RightUpLeg -30.166715 -20.959483 10.967561
RightLeg -3.599235 -0.000000 0.000000
RightFoot -10.837671 -14.761292 20.848635
RightToeBase 14.864128 -0.000000 -0.000000
355
root -0.458393 32.761886 -3.499112 39.112867 25.047446 3.080762
Spine -48.889290 14.281515 -19.065424
Head 8.809111 -23.091224 -14.418374
LeftShoulder -8.673712 41.521502 12.847586
LeftArm 72.091423 34.806434 -46.634890
LeftForeArm 11.745139 0.000000 7.015937
LeftHand -20.156534 -0.000000 -10.138885
LeftHandThumb1 -26.253704 0.000000 33.147579
RightShoulder -13.074267 5.927883 -52.834817
RightArm 116.681541 29.131951 128.487797
RightForeArm 88.112577 0.000000 119.050091
RightHand 23.719905 0.000000 1.199906
RightHandThumb1 -24.326973 -0.000000 -32.862282
LeftUpLeg -36.128259 -8.820795 8.326268
LeftLeg -0.734587 -0.000000 0.000000
LeftFoot 0.835056 -7.150184 -3.767150
LeftToeBase 1.944904 -0.000000 -0.000000
RightUpLeg -30.174791 -20.961857 10.975311
RightLeg -3.589522 -0.000000 0.000000
RightFoot -10.815597 -14.781759 20.755553
RightToeBase 14.848456 -0.000000 -0.000000
356
root -0.458312 32.762300 -3.500819 39.111080 25.050156 3.081489
Spine -48.890189 14.302312 -19.064423
Head 8.878772 -23.093230 -14.590867
LeftShoulder -8.651440 41.524081 12.849014
LeftArm 72.093275 34.794442 -46.620977
LeftForeArm 11.749049 -0.000000 7.048586
LeftHand -20.171693 -0.000000 -10.123162
LeftHandThumb1 -26.253704 0.000000 33.147579
RightShoulder -13.085482 5.919557 -52.776099
RightArm 116.786124 28.954870 128.674226
RightForeArm 88.306347 -0.000000 119.791977
RightHand 23.800107 -0.000000 1.214383
RightHandThumb1 -24.326973 -0.000000 -32.862282
LeftUpLeg -36.132582 -8.826717 8.331014
LeftLeg -0.728885 -0.000000 0.000000
LeftFoot 0.838991 -7.157131 -3.782593
LeftToeBase 1.971967 -0.000000 -0.000000
RightUpLeg -30.170062 -20.955012 10.967228
RightLeg -3.597503 -0.000000 0.000000
RightFoot -10.814439 -14.787615 20.795575
RightToeBase 14.830209 -0.000000 -0.000000
357
root -0.458837 32.763274 -3.502822 39.107999 25.056442 3.082513
Spine -48.885948 14.320947 -19.059697
Head 8.935916 -23.080413 -14.733114
LeftShoulder -8.625593 41.528953 12.852725
LeftArm 72.099203 34.783829 -46.604383
LeftForeArm 11.762067 -0.000000 7.072267
LeftHand -20.148908 0.000000 -10.096425
LeftHandThumb1 -26.253704 0.000000 33.147579
RightShoulder -13.079472 5.927357 -52.715649
RightArm 116.837932 28.874999 128.729240
RightForeArm 88.029450 -0.000000 120.567613
RightHand 24.108921 0.000000 0.600121
RightHandThumb1 -24.326973 -0.000000 -32.862282
LeftUpLeg -36.135007 -8.830485 8.331768
LeftLeg -0.725346 -0.000000 0.000000
LeftFoot 0.842474 -7.162028 -3.776135
LeftToeBase 1.985670 -0.000000 -0.000000
RightUpLeg -30.167994 -20.945415 10.958073
RightLeg -3.593734 -0.000000 0.000000
RightFoot -10.821691 -14.798392 20.808590
RightToeBase 14.868546 -0.000000 -0.000000
358
root -0.458462 32.762921 -3.504347 39.100701 25.053745 3.077892
Spine -48.883700 14.350970 -19.064561
Head 8.979193 -23.074554 -14.812857
LeftShoulder -8.614209 41.537205 12.863931
LeftArm 72.144028 34.784578 -46.564509
LeftForeArm 11.776539 0.000000 7.082417
LeftHand -20.155759 -0.000000 -10.083088
LeftHandThumb1 -26.253704 0.000000 33.147579
RightShoulder -13.098907 5.833625 -52.614855
RightArm 116.985116 28.642781 128.837214
RightForeArm 88.010126 0.000000 121.283851
RightHand 24.273813 -0.000000 0.446708
RightHandThumb1 -24.326973 -0.000000 -32.862282
LeftUpLeg -36.131797 -8.824308 8.330156
LeftLeg -0.723485 -0.000000 0.000000
LeftFoot 0.835513 -7.166905 -3.779443
LeftToeBase 2.000928 -0.000000 -0.000000
RightUpLeg -30.162333 -20.938520 10.953887
RightLeg -3.598074 -0.000000 0.000000
RightFoot -10.828613 -14.799869 20.852739
RightToeBase 14.825267 -0.000000 -0.000000
